<svg width="24" height="24" viewBox="0 0 24 24" fill="none" xmlns="http://www.w3.org/2000/svg">
<path d="M12 0C5.3832 0 0 5.3832 0 12C0 14.898 1.0328 17.5592 2.7496 19.6352C2.754 19.6412 2.7544 19.6488 2.7592 19.6544C3.9988 21.1492 5.5556 22.2952 7.2904 23.0356C7.3104 23.044 7.33 23.0532 7.35 23.0616C7.4904 23.1208 7.6324 23.1756 7.7748 23.2292C7.8308 23.2504 7.8868 23.272 7.9436 23.2924C8.0664 23.3364 8.19 23.378 8.3144 23.418C8.394 23.4436 8.4736 23.4688 8.554 23.4928C8.664 23.5256 8.7744 23.5572 8.8856 23.5872C8.9832 23.6136 9.0816 23.638 9.18 23.6616C9.2796 23.6856 9.3796 23.7096 9.48 23.7308C9.592 23.7548 9.7052 23.776 9.8188 23.7968C9.91 23.8136 10.0008 23.8312 10.0928 23.846C10.2188 23.8664 10.3456 23.8824 10.4728 23.8988C10.5548 23.9092 10.6364 23.9212 10.7188 23.93C10.8628 23.9452 11.008 23.956 11.1536 23.966C11.2212 23.9708 11.2884 23.978 11.3564 23.9816C11.5688 23.9936 11.7836 24 12 24C12.2164 24 12.4312 23.9936 12.6444 23.9824C12.7124 23.9788 12.7796 23.9716 12.8472 23.9668C12.9928 23.9564 13.138 23.946 13.282 23.9308C13.3644 23.922 13.446 23.91 13.528 23.8996C13.6552 23.8832 13.782 23.8672 13.908 23.8468C13.9996 23.832 14.0908 23.8144 14.182 23.7976C14.2952 23.7768 14.4084 23.7556 14.5208 23.7316C14.6212 23.71 14.7208 23.6864 14.8208 23.6624C14.9192 23.6384 15.0176 23.614 15.1152 23.588C15.2264 23.5584 15.3368 23.5264 15.4468 23.4936C15.5272 23.4696 15.6068 23.4444 15.6864 23.4188C15.8108 23.3788 15.9344 23.3372 16.0572 23.2932C16.1136 23.2728 16.1696 23.2512 16.226 23.23C16.3688 23.1764 16.5104 23.1212 16.6508 23.0624C16.6708 23.054 16.6904 23.0448 16.7104 23.0364C18.4448 22.296 20.002 21.15 21.2416 19.6552C21.2464 19.6496 21.2468 19.6416 21.2512 19.636C22.9672 17.5592 24 14.898 24 12C24 5.3832 18.6168 0 12 0ZM16.8628 22.088C16.8568 22.0908 16.8512 22.094 16.8452 22.0968C16.7024 22.1656 16.5572 22.2304 16.4108 22.2936C16.3776 22.3076 16.3448 22.322 16.3116 22.336C16.1836 22.3896 16.054 22.4404 15.9236 22.4892C15.8692 22.5096 15.8148 22.5296 15.76 22.5488C15.6444 22.59 15.5284 22.6296 15.4112 22.6672C15.3384 22.6904 15.2652 22.7124 15.192 22.734C15.088 22.7652 14.9836 22.7952 14.878 22.8232C14.7892 22.8468 14.6996 22.8684 14.61 22.8896C14.516 22.912 14.4224 22.9348 14.3276 22.9548C14.224 22.9768 14.1196 22.9956 14.0156 23.0144C13.9312 23.03 13.8472 23.0464 13.762 23.06C13.6448 23.0784 13.5264 23.0932 13.4084 23.108C13.3336 23.1176 13.2592 23.1288 13.1836 23.1368C13.0488 23.1512 12.9128 23.1604 12.7772 23.17C12.7168 23.174 12.6568 23.1808 12.5956 23.184C12.3976 23.1944 12.1992 23.2 12 23.2C11.8008 23.2 11.6024 23.1944 11.4048 23.184C11.344 23.1808 11.284 23.1744 11.2232 23.17C11.0872 23.1608 10.9516 23.1512 10.8168 23.1368C10.7412 23.1288 10.6668 23.1176 10.592 23.108C10.474 23.0932 10.3556 23.0784 10.2384 23.06C10.1532 23.0464 10.0692 23.03 9.9848 23.0144C9.8804 22.9956 9.776 22.9764 9.6728 22.9548C9.578 22.9348 9.484 22.912 9.3904 22.8896C9.3008 22.868 9.2112 22.8468 9.1224 22.8232C9.0172 22.7952 8.9124 22.7648 8.8084 22.734C8.7352 22.7124 8.662 22.6904 8.5892 22.6672C8.472 22.6296 8.3556 22.59 8.2404 22.5488C8.1856 22.5292 8.1312 22.5092 8.0768 22.4892C7.9464 22.4404 7.8168 22.3896 7.6888 22.336C7.6556 22.3224 7.6232 22.308 7.59 22.294C7.4436 22.2312 7.2984 22.166 7.1552 22.0972C7.1492 22.0944 7.1436 22.0916 7.1376 22.0884C5.742 21.4132 4.5092 20.4548 3.5088 19.2908C4.282 16.4436 6.4708 14.1484 9.2868 13.2352C9.3424 13.2692 9.4004 13.2996 9.4576 13.3316C9.4912 13.3504 9.5244 13.3704 9.5584 13.3884C9.6776 13.4516 9.7984 13.5108 9.922 13.564C10.0168 13.6056 10.1148 13.6408 10.2124 13.6768C10.2316 13.6836 10.2508 13.6912 10.27 13.698C10.8124 13.89 11.3928 14 12 14C12.6072 14 13.1876 13.89 13.7296 13.698C13.7488 13.6912 13.768 13.6836 13.7872 13.6768C13.8848 13.6408 13.9828 13.6056 14.0776 13.564C14.2012 13.5108 14.322 13.4516 14.4412 13.3884C14.4752 13.37 14.5084 13.3504 14.542 13.3316C14.5992 13.2996 14.6576 13.2692 14.7136 13.2348C17.5296 14.1484 19.718 16.4436 20.4916 19.2904C19.4912 20.454 18.2584 21.4124 16.8628 22.088ZM7.6 8.8C7.6 6.374 9.574 4.4 12 4.4C14.426 4.4 16.4 6.374 16.4 8.8C16.4 10.3432 15.5996 11.7012 14.3936 12.4868C14.236 12.5892 14.072 12.6808 13.9036 12.7608C13.8836 12.7704 13.864 12.7804 13.844 12.7896C12.6856 13.3164 11.3144 13.3164 10.156 12.7896C10.136 12.7804 10.116 12.7704 10.0964 12.7608C9.9276 12.6808 9.764 12.5892 9.6064 12.4868C8.4004 11.7012 7.6 10.3432 7.6 8.8ZM21.0916 18.5292C20.1848 15.8516 18.116 13.6876 15.4728 12.6596C16.53 11.7072 17.2 10.332 17.2 8.8C17.2 5.9328 14.8672 3.6 12 3.6C9.1328 3.6 6.8 5.9328 6.8 8.8C6.8 10.332 7.47 11.7072 8.5276 12.6596C5.8844 13.688 3.8156 15.8516 2.9088 18.5292C1.5836 16.6896 0.8 14.4352 0.8 12C0.8 5.8244 5.8244 0.8 12 0.8C18.1756 0.8 23.2 5.8244 23.2 12C23.2 14.4352 22.4164 16.6896 21.0916 18.5292Z" fill="#C51E1E"/>
</svg>
