<svg width="18" height="18" viewBox="0 0 18 18" fill="none" xmlns="http://www.w3.org/2000/svg">
<path d="M10.0421 9.00001L15.7842 3.25787C16.0719 2.9701 16.0719 2.50356 15.7842 2.21582C15.4964 1.92806 15.0299 1.92806 14.7421 2.21582L8.99998 7.95796L3.25786 2.21582C2.9701 1.92806 2.50356 1.92806 2.21582 2.21582C1.92809 2.50359 1.92806 2.97013 2.21582 3.25787L7.95794 9.00001L2.21582 14.7421C1.92806 15.0299 1.92806 15.4964 2.21582 15.7842C2.50359 16.072 2.97013 16.0719 3.25786 15.7842L8.99998 10.042L14.7421 15.7842C15.0298 16.072 15.4964 16.0719 15.7841 15.7842C16.0719 15.4964 16.0719 15.0299 15.7841 14.7421L10.0421 9.00001Z" fill="#3D3D3D"/>
</svg>
