<svg width="22" height="23" viewBox="0 0 22 23" fill="none" xmlns="http://www.w3.org/2000/svg">
<g clip-path="url(#clip0)">
<path d="M12.375 19.2606H8.70833C8.45533 19.2606 8.25 19.0552 8.25 18.8022C8.25 18.5492 8.45533 18.3439 8.70833 18.3439H12.375C13.1331 18.3439 13.75 17.727 13.75 16.9689V12.3856C13.75 12.1326 13.9553 11.9272 14.2083 11.9272C14.4613 11.9272 14.6667 12.1326 14.6667 12.3856V16.9689C14.6667 18.2321 13.6391 19.2606 12.375 19.2606Z" fill="#C51E1E"/>
<path d="M21.541 10.0939H12.3743C12.1213 10.0939 11.916 9.88858 11.916 9.63558C11.916 9.38258 12.1213 9.17725 12.3743 9.17725H21.541C21.794 9.17725 21.9993 9.38258 21.9993 9.63558C21.9993 9.88858 21.794 10.0939 21.541 10.0939Z" fill="#C51E1E"/>
<path d="M7.33333 22.0105C7.13167 22.0105 6.93458 21.9766 6.7485 21.9106L1.25767 20.08C0.506 19.8297 0 19.1312 0 18.3438V1.84383C0 0.832748 0.82225 0.010498 1.83333 0.010498C2.03683 0.010498 2.23483 0.0444147 2.41908 0.111331L7.909 1.941C8.66067 2.19033 9.16667 2.88883 9.16667 3.67716V20.1772C9.16667 21.1882 8.34442 22.0105 7.33333 22.0105ZM1.83333 0.927165C1.32733 0.927165 0.916667 1.33875 0.916667 1.84383V18.3438C0.916667 18.7362 1.16967 19.0845 1.54733 19.211L7.04733 21.0443C7.64867 21.2579 8.25 20.7767 8.25 20.1772V3.67716C8.25 3.28391 7.997 2.93558 7.61933 2.81091L2.11933 0.977581C2.02492 0.943665 1.92867 0.927165 1.83333 0.927165Z" fill="#C51E1E"/>
<path d="M14.2083 7.34383C13.9553 7.34383 13.75 7.1385 13.75 6.8855V2.30216C13.75 1.54408 13.1331 0.927165 12.375 0.927165H1.83333C1.58033 0.927165 1.375 0.721831 1.375 0.468831C1.375 0.215831 1.58033 0.010498 1.83333 0.010498H12.375C13.6391 0.010498 14.6667 1.039 14.6667 2.30216V6.8855C14.6667 7.1385 14.4613 7.34383 14.2083 7.34383Z" fill="#C51E1E"/>
<path d="M17.8746 13.7605C17.7572 13.7605 17.6399 13.7156 17.5501 13.6266C17.3713 13.4479 17.3713 13.1573 17.5501 12.9786L20.8923 9.6364L17.5501 6.29423C17.3713 6.11548 17.3713 5.8249 17.5501 5.64615C17.7288 5.4674 18.0194 5.4674 18.1982 5.64615L21.8648 9.31281C22.0436 9.49156 22.0436 9.78215 21.8648 9.9609L18.1982 13.6276C18.1092 13.7156 17.9919 13.7605 17.8746 13.7605Z" fill="#C51E1E"/>
</g>
<defs>
<clipPath id="clip0">
<rect width="22" height="22" fill="white" transform="translate(0 0.010498)"/>
</clipPath>
</defs>
</svg>
