<svg width="130" height="41" viewBox="0 0 130 41" fill="none" xmlns="http://www.w3.org/2000/svg">
<path fill-rule="evenodd" clip-rule="evenodd" d="M10.6172 10.3265L18.2747 10.3265C19.4303 10.3265 20.4958 10.7172 21.345 11.3736C22.1944 10.7172 23.2587 10.3265 24.4143 10.3265L32.0718 10.3265C32.5132 10.3265 32.8743 10.6883 32.8743 11.1304L32.8743 17.4072L39.2314 17.4072C39.4183 17.4072 39.5698 17.559 39.5698 17.7462C39.5698 17.9334 39.4183 18.0853 39.2314 18.0853L32.8743 18.0853L32.8743 18.8574L42.3506 18.8574C42.5375 18.8574 42.689 19.0093 42.689 19.1964C42.689 19.3837 42.5375 19.5355 42.3506 19.5355L32.8743 19.5355L32.8743 20.3077L39.2314 20.3077C39.4183 20.3077 39.5698 20.4595 39.5698 20.6467C39.5698 20.8339 39.4183 20.9857 39.2314 20.9857L32.8743 20.9857L32.8743 27.2625C32.8743 27.7046 32.5132 28.0663 32.0718 28.0663L24.4143 28.0663C23.2587 28.0663 22.1944 28.4571 21.345 29.1134C20.4958 28.4571 19.4303 28.0663 18.2747 28.0663L10.6172 28.0663C10.1758 28.0663 9.81467 27.7046 9.81467 27.2625L9.81467 20.9857L3.45756 20.9857C3.27069 20.9857 3.11916 20.8339 3.11916 20.6467C3.11916 20.4595 3.27069 20.3077 3.45756 20.3077L9.81467 20.3077L9.81467 19.5355L0.33841 19.5355C0.15153 19.5355 -1.13989e-07 19.3837 -1.12888e-07 19.1964C-1.11788e-07 19.0093 0.15153 18.8574 0.33841 18.8574L9.81467 18.8574L9.81467 18.0853L3.45756 18.0853C3.27069 18.0853 3.11916 17.9334 3.11916 17.7462C3.11916 17.559 3.27069 17.4072 3.45756 17.4072L9.81467 17.4072L9.81467 11.1304C9.81467 10.6883 10.1758 10.3265 10.6172 10.3265ZM125.58 18.3567C125.503 18.3658 125.417 18.3639 125.417 18.4539L125.407 23.5268C125.406 23.8053 125.565 24.0612 125.79 24.2186C125.89 24.2893 126.004 24.3331 126.124 24.3572C126.199 24.3719 126.219 24.4834 126.145 24.5189C126.075 24.5536 125.929 24.5457 125.861 24.543C125.471 24.5273 125.079 24.5168 124.688 24.517C124.4 24.5172 124.109 24.5225 123.821 24.5429C123.737 24.5488 123.626 24.5458 123.562 24.482L123.46 24.3792C123.898 24.3404 124.36 24.168 124.397 23.6583L124.386 18.4539C124.386 18.4121 124.367 18.3865 124.334 18.367L123.806 18.367C123.406 18.367 122.803 18.4016 122.466 18.643C122.166 18.8578 121.887 19.2661 121.68 19.5733L121.536 19.5733C121.527 18.9816 121.52 18.3897 121.514 17.798L128.259 17.7876C128.252 18.3794 128.245 18.9712 128.236 19.563L128.092 19.563C127.886 19.2557 127.607 18.8474 127.307 18.6327C126.97 18.3913 126.366 18.3567 125.967 18.3567L125.58 18.3567ZM62.2109 18.8046C62.2104 18.6037 62.1836 18.3694 62.0725 18.1967C61.9844 18.0598 61.8631 17.9785 61.7022 17.9538L61.6448 17.9449L61.6448 17.8086L63.7742 17.8086L63.7742 17.9449L63.7167 17.9538C63.5558 17.9785 63.4346 18.0598 63.3465 18.1967C63.2348 18.3704 63.2069 18.6018 63.208 18.804L63.208 23.5286C63.2069 23.7308 63.2348 23.9623 63.3465 24.136C63.4346 24.2729 63.5558 24.3541 63.7167 24.3788L63.7742 24.3877L63.7742 24.524L61.6448 24.524L61.6448 24.3877L61.7022 24.3788C61.8631 24.3541 61.9844 24.2729 62.0725 24.136C62.1836 23.9632 62.2104 23.7289 62.2109 23.528L62.2109 18.8046ZM128.041 14.0973C128.567 13.2865 128.328 12.1467 130 12.1467C130 13.458 128.939 14.5212 127.63 14.5212C101.087 14.5212 74.5435 14.5212 48.0004 14.5212C46.6913 14.5212 45.6301 13.458 45.6301 12.1467C47.302 12.1467 47.0631 13.2865 47.5891 14.0973C74.4064 14.0973 101.224 14.0973 128.041 14.0973ZM48.0004 27.7367C46.6913 27.7367 45.6301 28.7997 45.6301 30.1111C47.1331 30.1111 47.0919 29.1899 47.4502 28.4147C74.3601 28.4147 101.27 28.4147 128.18 28.4147C128.538 29.1899 128.497 30.1111 130 30.1111C130 28.7997 128.939 27.7367 127.63 27.7367C101.087 27.7367 74.5435 27.7367 48.0004 27.7367ZM118.375 23.959C118.586 23.9636 118.798 23.964 119.009 23.964C119.708 23.964 120.694 23.7102 120.923 22.9662L121.037 23.0803L120.805 24.5712C120.112 24.4847 119.118 24.5224 118.453 24.5224C117.661 24.5224 116.848 24.5273 116.056 24.5328L115.988 24.5332L115.988 24.3964C116.453 24.3251 116.552 23.9642 116.554 23.5367L116.564 18.8044C116.564 18.3826 116.463 18.0169 115.998 17.9449L115.998 17.8086L118.181 17.8086L118.181 17.9449C117.977 17.9764 117.862 18.037 117.756 18.2244C117.631 18.4447 117.603 18.8266 117.595 19.0724L117.595 23.4339C117.595 23.8985 118.02 23.9509 118.375 23.959ZM113.879 21.6995C113.992 23.6045 112.922 24.6771 111.032 24.6771C109.109 24.6771 107.983 23.7991 107.99 21.8149L108 18.8413L108 18.7632C108 18.3353 107.899 17.9756 107.434 17.9037L107.434 17.7674L109.618 17.7674L109.618 17.9037L109.56 17.9125C109.086 17.9856 109.044 18.634 109.031 19.0106L109.031 21.6399C109.031 23.1938 109.566 24.0568 111.207 24.0568C112.655 24.0568 113.172 23.1427 113.167 21.7844L113.157 18.7737C113.155 18.3454 113.056 17.9861 112.591 17.914L112.591 17.7776L114.435 17.7776L114.435 17.914C113.971 17.9856 113.867 18.3458 113.869 18.7732L113.879 21.6995ZM104.84 23.2038C104.865 22.6663 104.547 22.3966 104.16 22.1004C103.616 21.6846 103.023 21.3401 102.474 20.9258C101.877 20.4751 101.455 20.0794 101.505 19.2333C101.575 18.0804 102.73 17.5762 103.761 17.6645C104.042 17.6886 105.474 17.9251 105.419 18.3527C105.422 18.3865 105.422 18.4228 105.423 18.4563C105.426 18.5332 105.427 18.6102 105.428 18.6872C105.433 18.9571 105.436 19.2271 105.439 19.4971L105.439 19.4983C105.456 19.5292 105.458 19.5691 105.419 19.5939C105.372 19.6242 105.338 19.5918 105.313 19.5559C105.299 19.5358 105.286 19.5155 105.272 19.4952C105.219 19.4151 105.166 19.3344 105.114 19.2539C104.73 18.6667 104.289 18.3161 103.575 18.2637C103.009 18.222 102.487 18.4047 102.443 19.0448C102.42 19.5342 102.713 19.8276 103.072 20.1004C103.576 20.4849 104.152 20.7803 104.673 21.1593C105.233 21.5664 105.758 22.0334 105.799 22.7785C105.816 22.9242 105.798 23.0809 105.772 23.2244C105.554 24.4149 104.247 24.7854 103.204 24.6975C102.687 24.6539 101.934 24.5611 101.557 24.1729L101.557 22.6618C101.927 23.0334 102.023 23.445 102.498 23.7915C102.778 23.9961 103.097 24.1003 103.442 24.1293C104.203 24.1933 104.803 24.0014 104.84 23.2038ZM94.1666 19.7632L94.1372 23.537C94.1372 23.9644 94.2387 24.3249 94.7033 24.3964L94.7033 24.5328L92.8593 24.5328L92.8593 24.3964C93.324 24.3249 93.4254 23.9645 93.4254 23.537L93.4312 17.788L93.5605 17.788L98.7872 22.5503L98.7777 18.8046C98.7771 18.6037 98.7504 18.3694 98.6393 18.1967C98.5512 18.0598 98.4299 17.9785 98.269 17.9538L98.2116 17.9449L98.2116 17.8086L100.056 17.8086L100.056 17.9449L99.9981 17.9538C99.8372 17.9785 99.716 18.0598 99.6279 18.1967C99.5162 18.3704 99.4884 18.6018 99.4895 18.804L99.5409 24.3073C99.5437 24.4329 99.5266 24.5377 99.4426 24.6359L99.2904 24.6359C99.0621 24.4023 98.8288 24.1746 98.5944 23.9472C98.2314 23.5953 97.8658 23.2462 97.4993 22.898C96.3938 21.8473 95.2808 20.8044 94.1666 19.7632ZM91.4713 21.1449C91.4713 23.1784 89.7751 24.6771 87.7908 24.6771C85.7257 24.6771 84.0795 23.3139 84.0795 21.1759C84.0795 19.0985 85.7699 17.6334 87.7908 17.6334C89.8367 17.6334 91.4713 19.041 91.4713 21.1449ZM82.6913 22.7116C82.7012 22.8306 82.7018 22.9537 82.7018 23.073C82.7018 23.3422 82.7695 23.8963 82.5332 24.1037C82.3823 24.2368 82.1199 24.3394 81.9364 24.405C81.3676 24.6086 80.7232 24.6668 80.1227 24.6668C78.1225 24.6668 76.4192 23.2108 76.3907 21.1552L76.3907 21.1439C76.4194 19.0876 78.1222 17.6334 80.1227 17.6334C80.7232 17.6334 81.3676 17.6915 81.9364 17.895C82.1254 17.9627 82.3981 18.0696 82.5466 18.2083C82.7644 18.4265 82.7018 18.9506 82.7018 19.2271C82.7018 19.3465 82.7012 19.4695 82.6913 19.5885C82.6845 19.6697 82.6846 19.7379 82.6155 19.7898L82.515 19.7898C82.3422 18.7508 81.0017 18.2123 80.0918 18.2123C78.4072 18.2123 77.576 19.5182 77.576 21.0934L77.576 21.2068C77.576 22.7818 78.4073 24.0878 80.0918 24.0878C81.0238 24.0878 82.3447 23.5339 82.515 22.5103L82.6156 22.5103C82.6846 22.5621 82.6845 22.6305 82.6913 22.7116ZM69.7498 22.7386L66.9096 22.7386L66.2611 24.5328L64.9402 24.5328L64.8177 24.4102C65.2414 24.3364 65.4516 24.0081 65.66 23.6458C65.7128 23.5542 65.7619 23.4599 65.8098 23.3658C65.9676 23.0552 66.1151 22.7375 66.2602 22.4209C66.5446 21.8004 66.8288 21.1781 67.0979 20.5522C67.5649 19.4051 68.0192 18.2548 68.454 17.095C69.3573 19.2489 70.2838 21.3914 71.2467 23.5193C71.4519 23.968 71.6229 24.317 72.1586 24.3961L72.1586 24.5323L70.4489 24.5433C70.2197 23.9403 69.9903 23.3374 69.7498 22.7386ZM58.7763 23.2038C58.8015 22.6662 58.4834 22.3967 58.096 22.1004C57.5524 21.6846 56.9593 21.3402 56.4102 20.9258C55.8129 20.4751 55.3907 20.0796 55.4415 19.2333C55.4719 18.7277 55.7142 18.3357 56.1233 18.0429C56.5858 17.7121 57.1386 17.6166 57.6969 17.6645C57.9781 17.6886 59.4102 17.9251 59.3548 18.3527C59.358 18.3865 59.3583 18.4228 59.3593 18.4563C59.37 18.8026 59.3713 19.1506 59.3747 19.4971C59.394 19.5329 59.3922 19.5703 59.3554 19.5939C59.3082 19.6243 59.2736 19.5919 59.2489 19.5559C59.2351 19.5358 59.2216 19.5155 59.2081 19.4952C58.748 18.802 58.3961 18.3287 57.5112 18.2637C57.2359 18.2434 56.94 18.2705 56.7045 18.4277C56.4883 18.5722 56.3969 18.7912 56.3796 19.0448C56.3557 19.5346 56.6494 19.8274 57.0078 20.1004C57.5124 20.4849 58.0885 20.7804 58.6094 21.1593C59.1691 21.5663 59.694 22.0334 59.7349 22.7785C59.7517 22.9242 59.7345 23.0809 59.7083 23.2244C59.4899 24.4149 58.183 24.7854 57.14 24.6975C56.623 24.6539 55.8701 24.5611 55.4928 24.1729L55.4928 22.6618C55.8636 23.0333 55.9592 23.4449 56.4341 23.7915C56.7146 23.9961 57.0329 24.1003 57.3777 24.1293C58.1388 24.1933 58.739 24.0014 58.7763 23.2038ZM52.3035 22.7386L49.4632 22.7386L48.8148 24.5328L47.4938 24.5328L47.3713 24.4102C47.8671 24.3238 48.1474 23.7906 48.3634 23.3658C48.5213 23.0552 48.6686 22.7375 48.8138 22.4209C49.0983 21.8004 49.3824 21.1781 49.6516 20.5522C50.1185 19.4049 50.5725 18.2548 51.0076 17.095C51.9107 19.2489 52.8374 21.3914 53.8004 23.5193C54.0051 23.9706 54.18 24.3172 54.7122 24.3961L54.7122 24.5323L53.0026 24.5433C52.7735 23.9403 52.5438 23.3374 52.3035 22.7386ZM90.3169 21.3202C90.3169 19.5899 89.3767 18.2536 87.5542 18.2536C86.027 18.2536 85.2338 19.5589 85.2338 20.9696C85.2338 22.7343 86.1401 24.0672 88.007 24.0672C89.5577 24.0672 90.3169 22.7397 90.3169 21.3202ZM68.3235 19.2813L67.1177 22.201L69.5224 22.201C69.4101 21.938 69.3038 21.6698 69.1952 21.4052C68.9044 20.6973 68.614 19.9893 68.3235 19.2813ZM50.8771 19.2813L49.6714 22.201L52.0759 22.201C51.9636 21.938 51.8574 21.6698 51.7487 21.4052C51.4581 20.6973 51.1676 19.9893 50.8771 19.2813ZM6.14753 8.94545C6.14095 8.49134 5.71606 6.62101 3.63086 6.5828C3.60926 6.58221 3.58766 6.58188 3.56598 6.58188C3.56598 7.91047 4.28186 8.03453 4.98188 8.29205L4.98449 8.29298C5.01478 8.30406 5.0449 8.31555 5.07502 8.3273L5.07814 8.32848L5.08185 8.33C5.53028 8.51357 5.72475 8.78554 5.72475 8.95635L5.72475 10.5173C5.35184 9.69587 4.52552 9.12462 3.56598 9.12462C3.56598 10.9519 4.92012 10.5009 5.72475 11.2519L5.72475 13.0601C5.35184 12.2386 4.52552 11.6674 3.56598 11.6674C3.56598 13.4945 4.92012 13.0436 5.72475 13.7946L5.72475 15.6029C5.35184 14.7814 4.52552 14.2101 3.56598 14.2101C3.56598 16.0374 4.92012 15.5864 5.72475 16.3374L5.72475 16.7832C5.72475 16.9003 5.81942 16.9951 5.93627 16.9951C6.05304 16.9951 6.14779 16.9003 6.14779 16.7832L6.14779 8.95635L6.1477 8.95086L6.14753 8.94545ZM36.5415 8.94545C36.548 8.49134 36.9729 6.62101 39.0581 6.5828C39.0797 6.58221 39.1013 6.58188 39.123 6.58188C39.123 7.91047 38.4071 8.03453 37.7071 8.29205L37.7045 8.29299C37.6742 8.30406 37.6441 8.31555 37.614 8.3273L37.6109 8.32848L37.6071 8.33C37.1587 8.51357 36.9642 8.78554 36.9642 8.95635L36.9642 10.5173C37.3372 9.69587 38.1635 9.12462 39.123 9.12462C39.123 10.9519 37.7689 10.5009 36.9642 11.2519L36.9642 13.0601C37.3372 12.2386 38.1635 11.6674 39.123 11.6674C39.123 13.4945 37.7689 13.0436 36.9642 13.7946L36.9642 15.6029C37.3372 14.7814 38.1635 14.2101 39.123 14.2101C39.123 16.0374 37.7689 15.5864 36.9642 16.3374L36.9642 16.7832C36.9642 16.9003 36.8696 16.9951 36.7527 16.9951C36.636 16.9951 36.5412 16.9003 36.5412 16.7832L36.5412 8.95635L36.5413 8.95086L36.5415 8.94545ZM33.2335 8.10967C33.0524 8.06648 32.9406 7.88452 32.9836 7.70306C33.0266 7.52178 33.2084 7.40962 33.3895 7.45273C34.1168 7.62801 34.7514 8.04721 35.2008 8.61778C35.6423 9.17821 35.9066 9.88332 35.9066 10.6458L35.9066 16.6561C35.9066 16.8433 35.7551 16.9951 35.5682 16.9951C35.3813 16.9951 35.2297 16.8433 35.2297 16.6561L35.2297 10.6458C35.2297 10.0386 35.0209 9.47917 34.6721 9.0363C34.3142 8.58211 33.8102 8.24861 33.2335 8.10967ZM16.2644 37.2815C15.4702 37.1581 14.633 37.442 14.0799 38.1046C15.4624 39.2627 15.9897 37.9783 17.0547 37.8155L21.2229 40.6319C21.2926 40.6809 21.3879 40.6847 21.4626 40.6342L25.6343 37.8155C26.6993 37.9782 27.2266 39.2627 28.6091 38.1046C28.056 37.442 27.2188 37.1581 26.4246 37.2815L28.1713 36.1014C29.2362 36.2641 29.7635 37.5484 31.1461 36.3905C30.593 35.7279 29.7557 35.4438 28.9615 35.5674L30.596 34.463C31.661 34.6258 32.1883 35.9101 33.5709 34.7521C33.0178 34.0895 32.1805 33.8055 31.3863 33.929L32.8871 32.915C32.968 32.8604 33.0478 32.8046 33.1266 32.7478C34.1959 32.9062 34.7225 34.1984 36.1079 33.0379C35.5175 32.3306 34.6031 32.0546 33.7632 32.2454C34.1846 31.8822 34.5702 31.485 34.9162 31.0587C35.991 30.9215 36.8441 32.0309 37.871 30.5398C37.1141 30.0167 36.1605 29.995 35.4024 30.4024C35.5766 30.1443 35.7375 29.8776 35.8844 29.6035C35.9715 29.4412 36.0535 29.2762 36.1306 29.1088C37.1363 28.7098 38.2376 29.5669 38.8592 27.8678C37.9984 27.5517 37.0726 27.7673 36.4403 28.3478C36.6217 27.8372 36.7581 27.3087 36.8462 26.7674C37.7098 26.1193 38.9953 26.6482 39.1435 24.8474C38.2314 24.7721 37.3976 25.2246 36.9415 25.9502C36.9566 25.7367 36.9642 25.5216 36.9642 25.3054L36.9642 24.2764C37.7689 23.5254 39.123 23.9764 39.123 22.1492C38.1635 22.1492 37.3372 22.7205 36.9642 23.5419L36.9642 21.6097C36.9642 21.4926 36.8696 21.3978 36.7527 21.3978C36.636 21.3978 36.5412 21.4926 36.5412 21.6097L36.5412 25.3054C36.5412 26.7639 36.1767 28.1638 35.5126 29.4031C34.8422 30.6544 33.866 31.743 32.6508 32.564L21.3445 40.2034L10.0382 32.564C8.82299 31.743 7.84683 30.6544 7.17642 29.4031C6.51226 28.1638 6.14779 26.7639 6.14779 25.3054L6.14779 21.6097C6.14779 21.4926 6.05304 21.3978 5.93627 21.3978C5.81942 21.3978 5.72475 21.4926 5.72475 21.6097L5.72475 23.5419C5.35184 22.7205 4.52552 22.1492 3.56598 22.1492C3.56598 23.9764 4.92012 23.5254 5.72475 24.2764L5.72475 25.3054C5.72475 25.5216 5.73243 25.7367 5.74754 25.9502C5.29143 25.2246 4.4576 24.7721 3.54548 24.8474C3.69372 26.6482 4.97918 26.1193 5.84279 26.7674C5.93087 27.3087 6.0673 27.8372 6.24869 28.3478C5.61642 27.7673 4.69063 27.5517 3.82981 27.8678C4.45144 29.5669 5.55272 28.7098 6.55841 29.1088C6.63544 29.2762 6.71753 29.4412 6.8046 29.6035C6.95149 29.8776 7.11239 30.1443 7.28661 30.4024C6.52846 29.995 5.57491 30.0167 4.81803 30.5398C5.8449 32.0309 6.69804 30.9215 7.77283 31.0587C8.11883 31.485 8.50441 31.8822 8.92583 32.2454C8.08593 32.0546 7.17153 32.3306 6.58111 33.0379C7.96646 34.1984 8.4931 32.9062 9.56241 32.7478C9.64121 32.8046 9.72102 32.8604 9.80185 32.915L11.3027 33.929C10.5085 33.8055 9.67124 34.0895 9.11811 34.7521C10.5007 35.9101 11.028 34.6258 12.093 34.463L13.7274 35.5674C12.9333 35.4438 12.0959 35.7279 11.5429 36.3905C12.9255 37.5484 13.4528 36.2641 14.5177 36.1014L16.2644 37.2815ZM35.2297 21.7368C35.2297 21.5496 35.3813 21.3978 35.5682 21.3978C35.7551 21.3978 35.9066 21.5496 35.9066 21.7368L35.9066 25.3054C35.9066 26.6845 35.5603 27.9839 34.9502 29.1209C34.3182 30.2984 33.4028 31.3008 32.2955 32.0362L21.5335 39.3082C21.4139 39.389 21.2612 39.3829 21.1498 39.3043L10.3934 32.0365C10.3894 32.0339 10.3856 32.0312 10.3819 32.0285C9.27976 31.2936 8.36848 30.2943 7.73883 29.1209C7.12867 27.9839 6.78242 26.6845 6.78242 25.3054L6.78242 21.7368C6.78242 21.5496 6.93394 21.3978 7.12082 21.3978C7.3077 21.3978 7.45932 21.5496 7.45932 21.7368L7.45932 25.3054C7.45932 26.5707 7.77587 27.7608 8.33372 28.8004C8.91107 29.8762 9.74642 30.7922 10.7568 31.4657C10.7618 31.4686 10.7667 31.4717 10.7715 31.475L21.3445 38.6188L31.9175 31.475L31.9201 31.4737C32.9359 30.7995 33.7756 29.8804 34.3553 28.8004C34.9131 27.7608 35.2297 26.5707 35.2297 25.3054L35.2297 21.7368ZM7.45932 16.6561C7.45932 16.8433 7.3077 16.9951 7.12082 16.9951C6.93394 16.9951 6.78242 16.8433 6.78242 16.6561L6.78242 10.6458C6.78242 9.88332 7.04666 9.17829 7.48817 8.61778C7.93761 8.04721 8.57224 7.62801 9.29951 7.45273C9.48057 7.40962 9.66238 7.52178 9.70541 7.70306C9.74844 7.88452 9.63657 8.06648 9.45551 8.10967C8.87884 8.24861 8.37481 8.58211 8.01692 9.0363C7.66805 9.47925 7.45932 10.0387 7.45932 10.6458L7.45932 16.6561ZM20.8083 31.046C20.3459 30.243 19.6562 30.0036 19.2561 29.9534C19.8753 29.5655 19.3854 28.6628 18.7362 28.807C18.9354 29.0134 18.7825 29.412 18.4589 29.5098C18.1817 29.5936 17.7678 29.5519 17.3784 29.6442C17.3157 29.6661 17.2514 29.6861 17.1859 29.703C16.6159 29.8503 15.7137 29.9678 15.0732 29.8518C14.5504 29.8239 14.0468 29.6441 13.6217 29.2889C13.8542 31.0498 15.3246 30.6219 15.034 31.6099C15.4891 31.6684 16.257 31.2949 15.9863 30.4767C17.5124 29.9564 19.6281 29.9985 20.3429 31.2396C21.0204 32.4156 20.4938 33.4435 19.7864 33.8524C19.079 34.2613 18.1834 33.995 17.7701 33.3646C17.3572 32.7348 17.3638 31.7359 17.9043 31.4382C18.6431 31.0312 18.9652 31.7912 18.7219 32.0911C18.5224 32.337 18.2072 32.3384 18.1354 32.0482C17.8043 32.2396 17.8746 32.832 18.4816 32.8931C18.4309 33.2491 18.9389 33.3474 19.1272 33.1431C19.3333 33.4661 20.0123 33.2345 20.0604 32.865C19.3731 32.9607 19.7507 31.8296 19.1016 31.1481C18.6448 30.6686 17.3275 30.7064 17.0665 31.7163C16.6445 31.2971 15.7444 31.7721 15.8932 32.4397C16.5763 31.8842 16.8755 33.3605 17.7365 34.1076C18.1366 34.4546 18.6021 34.619 19.0655 34.619C21.3376 34.619 21.3857 32.0485 20.8083 31.046ZM21.3445 34.2055C21.8476 35.0717 22.8853 35.0875 22.8853 35.0875C22.8853 35.0875 22.5393 35.5915 21.9892 35.4024C21.9892 35.4024 22.0049 36.1269 21.3445 36.5364C20.6841 36.1269 20.6998 35.4024 20.6998 35.4024C20.1497 35.5915 19.8037 35.0875 19.8037 35.0875C19.8037 35.0875 20.8414 35.0717 21.3445 34.2055ZM21.3445 3.89672C21.3445 4.11832 21.8249 4.44928 21.8716 4.69818C21.9509 5.12102 21.4218 5.12009 21.3445 4.98562C21.2672 5.12009 20.738 5.12102 20.8174 4.69818C20.8641 4.44928 21.3445 4.11832 21.3445 3.89672ZM21.3445 10.3316C21.8101 8.59048 24.2418 7.83178 25.0576 9.45643C25.4814 9.15023 25.8299 8.24067 24.9688 7.77135C25.8334 6.14848 27.6255 4.53338 29.1846 5.00802C30.662 5.45764 31.023 6.7231 30.7525 7.61483C30.4819 8.50656 29.5304 8.98365 28.6967 8.78182C27.8638 8.58 27.0929 7.74422 27.3111 7.07503C27.6091 6.16048 28.4675 6.54122 28.4983 6.98037C28.5235 7.34041 28.2625 7.58736 27.9772 7.40219C27.8507 7.81953 28.3696 8.25732 28.9219 7.83482C29.1564 8.17035 29.6552 7.85595 29.653 7.5391C30.0754 7.64703 30.4601 6.92476 30.213 6.5801C29.7159 7.19563 29.1506 5.9606 28.0813 5.90008C27.3286 5.85757 26.2626 6.91647 26.8306 7.95982C26.1538 7.9403 25.7743 9.03732 26.417 9.47646C26.5532 8.48162 27.9496 9.47604 29.2462 9.42575C30.4285 9.37986 31.2738 8.5516 31.4645 7.45594L32.0885 7.19267L32.1783 7.16842C32.6553 7.01054 32.9842 6.41589 32.8743 5.99119C31.8815 6.80821 31.5519 5.13268 29.4211 4.4841C28.4126 4.17697 27.6528 4.51588 27.2813 4.78608C27.4946 3.98056 26.3856 3.6119 25.9578 4.23825C26.2838 4.25456 26.4666 4.7052 26.2735 5.03895C26.1081 5.32487 25.7314 5.6129 25.4793 5.99331C25.4444 6.06041 25.4062 6.12718 25.3649 6.19242C25.1049 6.60258 24.6882 7.1352 24.242 7.5511C24.4944 7.14593 24.6644 6.65954 24.7174 6.09101C24.8866 4.27425 23.5571 3.05071 23.618 2.0399C23.7552 2.42411 24.2994 2.27452 24.4957 1.93696C24.9559 1.14589 24.1868 0.576339 25.3392 0.0548756C23.2259 -0.360689 22.7611 1.68147 23.2183 2.89529C23.2773 2.99662 23.3371 3.11469 23.3956 3.25228C23.742 4.0682 24.2081 4.95165 24.1706 5.84895C24.0981 5.79799 24.0122 5.76393 23.9179 5.75362C23.619 5.72074 23.3501 5.93676 23.3173 6.2362C23.2844 6.53556 23.5002 6.80491 23.7991 6.83779C23.8437 6.84269 23.8877 6.84142 23.9304 6.83576C23.5337 7.58821 22.9276 8.0795 22.2575 8.31006C21.1534 8.60248 21.5221 5.60326 21.7938 5.43339C22.4442 5.70959 22.8286 4.58071 23.6456 5.27889C23.6198 4.27636 22.6343 3.77966 22.0438 4.16615C22.1611 3.40255 21.4802 3.09753 21.3445 2.40391C21.2088 3.09753 20.5279 3.40255 20.6452 4.16615C20.0547 3.77966 19.0692 4.27636 19.0434 5.27889C19.8603 4.58071 20.2448 5.70959 20.8951 5.43339C21.1669 5.60326 21.5356 8.60248 20.4315 8.31006C19.7614 8.0795 19.1553 7.58821 18.7586 6.83576C18.8013 6.84142 18.8453 6.84269 18.8899 6.83779C19.1888 6.80491 19.4046 6.53556 19.3717 6.2362C19.3389 5.93676 19.07 5.72074 18.7711 5.75362C18.6768 5.76393 18.5909 5.79799 18.5184 5.84895C18.4809 4.95165 18.947 4.0682 19.2934 3.25228C19.3519 3.11469 19.4117 2.99662 19.4707 2.89529C19.9279 1.68147 19.463 -0.360689 17.3497 0.0548755C18.5022 0.576339 17.733 1.14589 18.1933 1.93696C18.3896 2.27452 18.9338 2.42411 19.071 2.0399C19.1319 3.05071 17.8024 4.27425 17.9716 6.09101C18.0246 6.65954 18.1945 7.14593 18.447 7.5511C18.0007 7.1352 17.5841 6.60258 17.3241 6.19242C17.2828 6.12718 17.2446 6.06041 17.2097 5.99331C16.9576 5.6129 16.5809 5.32487 16.4155 5.03895C16.2224 4.7052 16.4051 4.25456 16.7312 4.23825C16.3034 3.6119 15.1944 3.98056 15.4077 4.78608C15.0362 4.51588 14.2764 4.17697 13.2678 4.4841C11.1371 5.13268 10.8075 6.80821 9.81467 5.99119C9.70482 6.41589 10.0337 7.01054 10.5107 7.16842L10.6005 7.19267L11.2245 7.45594C11.4152 8.5516 12.2605 9.37986 13.4427 9.42575C14.7394 9.47604 16.1357 8.48162 16.272 9.47646C16.9147 9.03732 16.5352 7.9403 15.8584 7.95982C16.4264 6.91647 15.3604 5.85757 14.6077 5.90008C13.5384 5.9606 12.9731 7.19563 12.476 6.5801C12.2289 6.92476 12.6136 7.64703 13.036 7.5391C13.0338 7.85595 13.5326 8.17035 13.7671 7.83482C14.3194 8.25732 14.8383 7.81953 14.7118 7.40219C14.4265 7.58736 14.1655 7.34041 14.1907 6.98037C14.2215 6.54122 15.0799 6.16048 15.3779 7.07503C15.5961 7.74422 14.8252 8.58 13.9922 8.78182C13.1586 8.98365 12.2071 8.50656 11.9365 7.61483C11.666 6.7231 12.027 5.45764 13.5044 5.00802C15.0635 4.53338 16.8556 6.14848 17.7202 7.77135C16.8591 8.24067 17.2076 9.15023 17.6314 9.45643C18.4471 7.83178 20.8789 8.59048 21.3445 10.3316ZM21.8807 31.046C22.3431 30.243 23.0328 30.0036 23.4329 29.9534C22.8137 29.5655 23.3036 28.6628 23.9528 28.807C23.7536 29.0134 23.9065 29.412 24.2301 29.5098C24.5073 29.5936 24.9212 29.5519 25.3106 29.6442C25.3732 29.6661 25.4376 29.6861 25.5031 29.703C26.0731 29.8503 26.9753 29.9678 27.6158 29.8518C28.1386 29.8239 28.6422 29.6441 29.0673 29.2889C28.8348 31.0498 27.3644 30.6219 27.6549 31.6099C27.1999 31.6684 26.432 31.2949 26.7027 30.4767C25.1766 29.9564 23.0609 29.9985 22.3461 31.2396C21.6686 32.4156 22.1952 33.4435 22.9026 33.8524C23.61 34.2613 24.5056 33.995 24.9189 33.3646C25.3318 32.7348 25.3252 31.7359 24.7847 31.4382C24.0459 31.0312 23.7238 31.7912 23.9671 32.0911C24.1666 32.337 24.4818 32.3384 24.5536 32.0482C24.8847 32.2396 24.8144 32.832 24.2074 32.8931C24.2581 33.2491 23.7501 33.3474 23.5618 33.1431C23.3557 33.4661 22.6767 33.2345 22.6286 32.865C23.3159 32.9607 22.9383 31.8296 23.5874 31.1481C24.0442 30.6686 25.3615 30.7064 25.6225 31.7163C26.0445 31.2971 26.9446 31.7721 26.7958 32.4397C26.1127 31.8842 25.8135 33.3605 24.9525 34.1076C24.5524 34.4546 24.0869 34.619 23.6235 34.619C21.3514 34.619 21.3033 32.0485 21.8807 31.046ZM13.6073 22.7227L12.3619 22.7227L12.3515 22.7123C12.913 22.6146 13.5167 21.1401 13.7153 20.7069C14.4992 18.9974 15.1897 17.2987 15.8512 15.5362C16.7707 17.7289 17.6798 19.8185 18.5788 21.805C18.732 22.2147 19.0187 22.6433 19.4846 22.7123L19.4846 22.7227L17.8891 22.733C17.5941 21.9563 17.3607 21.3548 17.1892 20.9286L14.2557 20.9286L13.6073 22.7227ZM16.9833 20.444C16.9627 20.3959 16.5408 19.3683 15.7173 17.3611L14.4102 20.5265L17.0245 20.5265L16.9833 20.444ZM29.8177 20.8358C29.9095 20.9049 29.8309 22.0013 29.8073 22.1763C29.7855 22.2423 29.7719 22.253 29.725 22.3C29.2573 22.7374 27.949 22.8567 27.3473 22.8567C25.3812 22.8567 23.7112 21.4348 23.6831 19.4129L23.6831 19.4026C23.7113 17.3816 25.3822 15.9589 27.3473 15.9589C27.9484 15.9589 29.2579 16.0785 29.725 16.5156C29.7719 16.5627 29.7855 16.5734 29.8073 16.6394C29.8309 16.8144 29.9095 17.9107 29.8177 17.9798L29.797 17.9798C29.6301 16.9786 28.2185 16.4023 27.3165 16.4023C25.5954 16.4023 24.733 17.7397 24.733 19.3511L24.733 19.4026L24.733 19.4129L24.733 19.4646C24.733 21.0759 25.5955 22.4134 27.3165 22.4134C28.2185 22.4134 29.6301 21.8368 29.797 20.8358L29.8177 20.8358ZM21.3445 12.2296L20.9316 11.9104C20.1678 11.3202 19.2393 11.0046 18.2747 11.0046L10.6172 11.0046C10.5495 11.0046 10.4916 11.0625 10.4916 11.1304L10.4916 27.2625C10.4916 27.3304 10.5495 27.3883 10.6172 27.3883L18.2747 27.3883C19.369 27.3883 20.43 27.6993 21.3445 28.2849L21.3445 12.2296Z" fill="#841B0C"/>
</svg>
