<svg width="28" height="28" viewBox="0 0 28 28" fill="none" xmlns="http://www.w3.org/2000/svg">
<path d="M16.0842 14L27.5684 2.51574C28.1439 1.9402 28.1439 1.00713 27.5684 0.431649C26.9929 -0.143883 26.0597 -0.143883 25.4843 0.431649L14 11.9159L2.51573 0.431649C1.9402 -0.143883 1.00712 -0.143883 0.431647 0.431649C-0.143828 1.00718 -0.143882 1.94026 0.431647 2.51574L11.9159 14L0.431647 25.4843C-0.143882 26.0598 -0.143882 26.9929 0.431647 27.5684C1.00718 28.1439 1.94025 28.1438 2.51573 27.5684L14 16.0841L25.4841 27.5684C26.0597 28.1439 26.9928 28.1438 27.5683 27.5684C28.1438 26.9928 28.1438 26.0598 27.5683 25.4843L16.0842 14Z" fill="#C51E1E"/>
</svg>
