<svg width="16" height="16" viewBox="0 0 16 16" fill="none" xmlns="http://www.w3.org/2000/svg">
<g clip-path="url(#clip0)">
<path d="M14.2042 9.86122L13.0209 8.67787L7.696 3.35323C6.71463 2.37921 5.1305 2.38215 4.15281 3.35984C3.17512 4.33753 3.17218 5.92166 4.1462 6.90303L9.47084 12.2293C9.68862 12.4472 10.0419 12.4472 10.2598 12.2293C10.4776 12.0114 10.4776 11.6582 10.2598 11.4403L4.93514 6.11409C4.39056 5.56951 4.39056 4.68675 4.93514 4.14217C5.47971 3.59759 6.36248 3.59759 6.90706 4.14217L12.2333 9.46681L13.4166 10.65C14.397 11.6308 14.3967 13.2205 13.416 14.2008C12.4353 15.1811 10.8456 15.1808 9.86524 14.2001L8.87934 13.2138L3.35738 7.69185L2.96285 7.29744C1.58389 5.87536 1.6014 3.60984 3.00204 2.20907C4.40281 0.808434 6.66833 0.790918 8.09041 2.16988L14.0068 8.08638C14.1478 8.22724 14.3532 8.28223 14.5456 8.23067C14.7382 8.1791 14.8886 8.02881 14.9401 7.83626C14.9917 7.64371 14.9366 7.43842 14.7957 7.29744L8.87934 1.38106C7.02648 -0.463351 4.03032 -0.459921 2.18175 1.38878C0.333048 3.23735 0.329618 6.23351 2.17403 8.08638L8.09041 14.0028L9.07777 14.989C10.5017 16.3567 12.7583 16.3339 14.1541 14.9376C15.5501 13.5413 15.5723 11.2848 14.2042 9.86122Z" fill="#C51E1E"/>
</g>
<defs>
<clipPath id="clip0">
<rect width="16" height="16" fill="white"/>
</clipPath>
</defs>
</svg>
