<svg width="12" height="12" viewBox="0 0 12 12" fill="none" xmlns="http://www.w3.org/2000/svg">
<path d="M6.81061 5.99999L11.2767 1.53388C11.5005 1.31007 11.5005 0.947202 11.2767 0.723405C11.0529 0.499588 10.69 0.499588 10.4662 0.723405L6.00009 5.18951L1.534 0.723405C1.31019 0.499588 0.947323 0.499588 0.723527 0.723405C0.499731 0.947223 0.49971 1.31009 0.723527 1.53388L5.18962 5.99999L0.723527 10.4661C0.49971 10.6899 0.49971 11.0528 0.723527 11.2766C0.947344 11.5004 1.31021 11.5004 1.534 11.2766L6.00009 6.81047L10.4662 11.2766C10.69 11.5004 11.0529 11.5004 11.2767 11.2766C11.5005 11.0528 11.5005 10.6899 11.2767 10.4661L6.81061 5.99999Z" fill="#C51E1E"/>
</svg>
